<?xml version="1.0" encoding="iso-8859-1"?>
<!-- Generator: Adobe Illustrator 19.0.0, SVG Export Plug-In . SVG Version: 6.00 Build 0)  -->
<svg version="1.1" id="Layer_1" xmlns="http://www.w3.org/2000/svg" xmlns:xlink="http://www.w3.org/1999/xlink" x="0px" y="0px"
	 viewBox="0 0 460 460" style="enable-background:new 0 0 460 460;" xml:space="preserve">
<g id="XMLID_2566_">
	<path id="XMLID_995_" style="fill:#BC8E57;" d="M87.295,8.153c3.777,4.02,3.573,10.335-0.456,14.104l-14.59,13.649L58.57,21.347
		L73.161,7.698C77.19,3.929,83.518,4.132,87.295,8.153z"/>
	<path id="XMLID_1119_" style="fill:#EACD8B;" d="M460,175.669v19.827c0,16.569-13.431,30-30,30c0,33.065-26.863,59.87-60,59.87H170
		c-27.614,0-50-22.337-50-49.892c-49.706,0-90-40.207-90-89.806v-42.269c0-9.708-7.876-17.58-17.6-17.601
		C5.581,85.783,0,80.269,0,73.464v-9.979c0-4.672,2.645-8.943,6.833-11.032l26.334-13.139c4.235-2.113,6.893-6.457,6.832-11.191
		c-0.087-6.764,5.676-12.174,12.457-12.174H70c4.544,0,8.72,1.53,12.078,4.077l2.512-2.35c4.19-3.919,10.866-3.543,14.574,0.954
		c3.384,4.104,2.74,10.204-1.146,13.839L90,39.971v45.827v42.269c0,9.721,7.897,17.601,17.639,17.601
		c7.516,0,14.328-4.417,17.381-11.271l20.765-46.62C154.429,68.37,173.716,55.863,195,55.863s40.571,12.507,49.215,31.914
		l23.754,53.332c1.478,3.318,5.134,5.225,8.851,4.345c2.382-0.564,4.307-2.316,5.301-4.548l23.664-53.129
		C314.429,68.37,333.716,55.863,355,55.863s40.571,12.507,49.215,31.914L430,145.669C446.569,145.669,460,159.1,460,175.669z"/>
	<path id="XMLID_1172_" style="fill:#BC8E57;" d="M370,265.486v69.772c0,13.926-9.529,25.63-22.435,28.976
		c-4.437,1.15-7.565,5.097-7.565,9.671v71.115c0,5.511-4.477,9.979-10,9.979h-10c0,0-4.477,0-10,0h-10v-89.806
		c-5.523,0-10-4.468-10-9.978v-89.729h20h40H370z"/>
	<path id="XMLID_1890_" style="fill:#5B462E;" d="M296.18,435.042c-3.788,0-7.25,2.135-8.944,5.516L280,454.999h30
		c5.523,0,10-4.468,10-9.979v-9.978H296.18z"/>
	<path id="XMLID_1171_" style="fill:#BC8E57;" d="M210,265.486h20v69.772c0,13.926-9.529,25.63-22.435,28.976
		c-4.437,1.15-7.565,5.097-7.565,9.671v71.115c0,5.511-4.477,9.979-10,9.979h-10c0,0-4.477,0-10,0h-10v-89.806
		c-5.523,0-10-4.468-10-9.978v-89.806h60V265.486z"/>
	<path id="XMLID_1125_" style="fill:#5B462E;" d="M156.18,435.042H180v9.978c0,5.511-4.477,9.979-10,9.979h-30l7.236-14.441
		C148.93,437.177,152.393,435.042,156.18,435.042z"/>
	<path id="XMLID_2573_" style="fill:#BC8E57;" d="M247.672,95.54c3.167,7.111,3.86,15.074,1.969,22.624
		c-0.95,3.794-3.998,6.827-7.87,7.43c-5.02,0.782-9.649-2.39-10.84-7.142l-4.498-17.953c-0.695-2.775-3.194-4.722-6.061-4.722l0,0
		c-2.978,0-5.542,2.098-6.126,5.012l-6.57,32.78c-1.425,7.112-6.548,12.101-12.425,12.101s-11-4.989-12.425-12.101l-6.57-32.78
		c-0.584-2.914-3.148-5.012-6.126-5.012l0,0c-2.867,0-5.366,1.947-6.061,4.722l-4.426,17.665c-0.95,3.794-3.998,6.827-7.87,7.43
		c-5.02,0.782-9.649-2.39-10.84-7.142l-0.252-1.007c-1.891-7.549-1.198-15.513,1.969-22.623l3.137-7.044
		c8.644-19.407,27.931-31.914,49.215-31.914l0,0c21.284,0,40.571,12.507,49.215,31.914L247.672,95.54z"/>
	<path id="XMLID_2574_" style="fill:#BC8E57;" d="M407.698,95.54l-3.458-7.762c-8.644-19.407-27.931-31.914-49.215-31.914l0,0
		c-21.284,0-40.571,12.507-49.215,31.914l-3.138,7.044c-3.167,7.111-3.86,15.074-1.969,22.623l0.252,1.007
		c1.191,4.752,5.82,7.924,10.84,7.142c3.872-0.603,6.92-3.636,7.87-7.43l4.426-17.665c0.695-2.775,3.194-4.722,6.061-4.722l0,0
		c2.978,0,5.542,2.098,6.126,5.012l6.57,32.78c1.425,7.112,6.548,12.101,12.425,12.101c5.877,0,11-4.989,12.425-12.101l6.57-32.78
		c0.584-2.914,3.148-5.012,6.126-5.012l0,0c2.867,0,5.366,1.947,6.061,4.722l4.498,17.953c1.191,4.752,5.82,7.924,10.84,7.142
		c3.872-0.603,6.92-3.636,7.87-7.43C411.558,110.614,410.865,102.651,407.698,95.54z"/>
	<path id="XMLID_796_" style="fill:#D8B177;" d="M440,175.604v19.957c0,5.511-4.477,9.979-10,9.979h-6c-2.209,0-4,1.787-4,3.991
		v5.987c0,5.511,4.477,9.979,10,9.979c0,33.065-26.863,59.87-60,59.87v49.892c0,13.926-9.529,25.63-22.435,28.976
		c-4.437,1.15-7.565,5.097-7.565,9.671v71.115c0,5.511-4.477,9.979-10,9.979h-10v-89.806c-5.523,0-10-4.467-10-9.978v-69.849h-80
		v49.892c0,13.926-9.529,25.63-22.435,28.976c-4.437,1.15-7.565,5.097-7.565,9.671v71.115c0,5.511-4.477,9.979-10,9.979h-10v-89.806
		c-5.523,0-10-4.467-10-9.978v-69.849c-27.614,0-50-22.337-50-49.892c-0.017,0-0.033,0-0.05,0c-2.89-0.002-5.428,1.906-6.129,4.704
		l-2.609,10.412c-0.78,3.113-3.773,5.209-7.052,4.786c-2.667-0.344-4.782-2.427-5.434-5.029l-4.719-18.835c-0.276,0-0.239,0-0.515,0
		l-2.28,9.1c-0.78,3.113-3.773,5.209-7.052,4.786c-2.666-0.344-4.782-2.427-5.434-5.029L74.4,223.104
		C47.832,207.492,30,178.66,30,145.669v-42.27c0-9.721-7.897-17.601-17.639-17.601l0,0C5.534,85.798,0,80.276,0,73.464v-9.979
		c0-4.672,2.645-8.943,6.833-11.032l19.463-9.71C28.609,45.721,30,49.448,30,53.507v42.269c0,49.598,40.294,89.806,90,89.806h95.122
		c2.867,0,5.366,1.947,6.061,4.722l4.498,17.953c1.191,4.752,5.82,7.924,10.84,7.142c3.872-0.603,6.92-3.636,7.87-7.43l4.426-17.665
		c0.695-2.775,3.194-4.722,6.061-4.722l0,0c2.978,0,5.542,2.097,6.126,5.011l6.57,32.78c1.425,7.112,6.548,12.1,12.425,12.1
		s11-4.989,12.425-12.1l6.57-32.78c0.584-2.914,3.148-5.011,6.126-5.011l0,0c2.867,0,5.366,1.947,6.061,4.722l4.498,17.953
		c1.191,4.752,5.82,7.924,10.84,7.142c3.872-0.603,6.92-3.636,7.87-7.43l4.426-17.665c0.695-2.775,3.194-4.722,6.061-4.722H410
		c11.046,0,20-8.935,20-19.957C435.523,165.625,440,170.093,440,175.604z"/>
	<path id="XMLID_1647_" style="fill:#776144;" d="M176.18,435.042H200v9.978c0,5.511-4.477,9.979-10,9.979h-30l7.236-14.441
		C168.93,437.177,172.393,435.042,176.18,435.042z"/>
	<path id="XMLID_1926_" style="fill:#776144;" d="M316.18,435.042c-3.788,0-7.25,2.135-8.944,5.516L300,454.999h30
		c5.523,0,10-4.468,10-9.979v-9.978H316.18z"/>
	<path id="XMLID_449_" style="fill:#BC8E57;" d="M29.769,75.82v19.957l0,0v7.623c0-9.721-7.897-17.601-17.639-17.601l0,0
		c-6.019,0-11.027-4.294-12.129-9.979H29.769z"/>
	<path id="XMLID_788_" style="fill:#A87C47;" d="M20,45.885v9.979c0,5.511-4.477,9.979-10,9.979H0v-2.356
		c0-4.672,2.645-8.943,6.833-11.032L20,45.885z"/>
	<path id="XMLID_1929_" style="fill:#BC8E57;" d="M310,259.634v12.853v12.88v20.453h-20v-20.453h-40h-10h-10v-25.733
		c0-2.321,2.514-4.203,5.615-4.203c2.577,0,4.823,1.312,5.448,3.183c1.355,4.058,5.161,6.795,9.448,6.795h38.977
		c4.287,0,8.093-2.737,9.448-6.795c0.625-1.871,2.871-3.183,5.448-3.183C307.486,255.431,310,257.313,310,259.634z"/>
	<path id="XMLID_1927_" style="fill:#BC8E57;" d="M170,272.482v4.504v8.38v20.453h-20v-24.616c-17.656-7.7-30-25.272-30-45.729h5.29
		c2.815,0,5.516,1.169,7.39,3.265c6.091,6.813,14.027,11.948,23.025,14.623C164.184,255.882,170,263.654,170,272.482z"/>
	<path id="XMLID_1932_" style="fill:#BC8E57;" d="M414.71,265.409c-10.986,12.245-26.943,19.957-44.71,19.957v-9.978v-9.979v-4.18
		c0-3.4,2.933-6.117,6.412-5.769c2.317,0.232,4.237,1.912,4.973,4.117c1.163,3.482,4.429,5.832,8.108,5.832H414.71z"/>
	<path id="XMLID_451_" style="fill:#60503E;" d="M60,50.874c0,2.756-2.239,4.989-5,4.989s-5-2.234-5-4.989
		c0-2.755,2.239-4.989,5-4.989S60,48.118,60,50.874z"/>
</g>
<g>
</g>
<g>
</g>
<g>
</g>
<g>
</g>
<g>
</g>
<g>
</g>
<g>
</g>
<g>
</g>
<g>
</g>
<g>
</g>
<g>
</g>
<g>
</g>
<g>
</g>
<g>
</g>
<g>
</g>
</svg>
